<?xml version="1.0" standalone="no"?>
<!DOCTYPE svg PUBLIC "-//W3C//DTD SVG 20010904//EN"
 "http://www.w3.org/TR/2001/REC-SVG-20010904/DTD/svg10.dtd">
<svg version="1.0" xmlns="http://www.w3.org/2000/svg"
 width="225.000000pt" height="225.000000pt" viewBox="0 0 225.000000 225.000000"
 preserveAspectRatio="xMidYMid meet">
<metadata>
Created by potrace 1.16, written by Peter Selinger 2001-2019
</metadata>
<g transform="translate(0.000000,225.000000) scale(0.100000,-0.100000)"
fill="#000"  stroke="none">
<!--fill="#5d66f0"-->

<path d="M910 2160 c-420 -89 -745 -420 -824 -840 -20 -104 -20 -284 -1 -387
117 -618 732 -999 1334 -827 489 140 815 619 761 1119 -51 478 -394 851 -863
940 -108 21 -299 18 -407 -5z m417 -75 c368 -78 653 -351 755 -724 31 -110 31
-362 0 -473 -50 -183 -135 -332 -262 -458 -126 -127 -275 -212 -458 -262 -111
-31 -363 -31 -473 0 -406 111 -690 437 -739 846 -35 294 69 587 284 802 157
157 349 253 568 284 80 11 237 4 325 -15z"/>
<path d="M847 1495 l-26 -75 160 0 159 0 0 -100 0 -100 -30 0 -30 0 0 70 0 70
-75 0 -75 0 0 -70 0 -70 -125 0 -125 0 0 165 0 165 -75 0 -75 0 0 -345 0 -345
75 0 75 0 0 105 0 105 125 0 125 0 0 -200 0 -201 73 3 72 3 3 198 2 197 30 0
30 0 0 -175 0 -175 75 0 75 0 0 175 0 176 61 -3 62 -3 64 -102 65 -103 85 0
c66 0 84 3 80 13 -3 7 -35 60 -72 117 -48 74 -63 105 -54 109 8 2 35 25 61 50
56 56 83 134 73 206 -11 67 -61 144 -119 180 l-49 30 -338 3 -337 3 -25 -76z
m697 -106 c18 -21 26 -42 26 -69 0 -27 -8 -48 -26 -69 l-26 -31 -114 0 -114 0
0 100 0 100 114 0 114 0 26 -31z"/>
</g>
</svg>
